<?xml version="1.0" encoding="utf-8"?>
<!DOCTYPE svg PUBLIC "-//W3C//DTD SVG 1.1//EN" "http://www.w3.org/2000/svg">
<svg version="1.1"
     xmlns="http://www.w3.org/2000/svg"
     height="800px"
     width="800px">

    <g>
        <g fill="red" transform="translate(-100.000000,512.000000) scale(0.100000,-0.100000)">
            <path d="M3830,2554.8v-364.4h-680.9h-680.9V2037v-153.4h230.2h230.2V-191.7c0-1371.4,7.7-2102.1,19.2-2148.2c30.7-109.3,132.4-228.2,247.4-287.7l101.7-53.7h1701.3h1701.2l99.7,49.9c53.7,26.9,124.7,82.5,157.3,122.8c120.8,153.4,115.1,32.6,115.1,2313.1v2079.1h230.2h230.2V2037v153.4h-680.9H6170v364.4v364.4H5000H3830V2554.8z M5863.1,2401.4v-211H5000h-863.1v211v211H5000h863.1V2401.4z M6764.6-189.8v-2073.3l-55.6-55.6l-55.6-55.6H5000H3346.7l-55.6,55.6l-55.6,55.6v2073.3v2073.4H5000h1764.6V-189.8z"/>
            <path d="M3964.3-245.4v-1074.1h153.4h153.4l-3.8,1070.2L4261.6,819l-147.7,5.8l-149.6,5.8V-245.4z"/>
            <path d="M4846.6-245.4v-1074.1H5000h153.4v1074.1V828.6H5000h-153.4V-245.4z"/>
            <path d="M5742.3,815.2c-7.7-5.8-13.4-489.1-13.4-1074.1v-1060.7h153.4h153.4v1074.1V828.6h-140C5817.1,828.6,5748,822.9,5742.3,815.2z"/>
        </g>
    </g>

    <polygon fill="red" points="200,150 600,150 400,0"/>
</svg>